<?xml version="1.0" encoding="UTF-8" standalone="no"?>
<!-- Created with Inkscape (http://www.inkscape.org/) -->

<svg
   xmlns:dc="http://purl.org/dc/elements/1.1/"
   xmlns:cc="http://creativecommons.org/ns#"
   xmlns:rdf="http://www.w3.org/1999/02/22-rdf-syntax-ns#"
   xmlns:svg="http://www.w3.org/2000/svg"
   xmlns="http://www.w3.org/2000/svg"
   xmlns:sodipodi="http://sodipodi.sourceforge.net/DTD/sodipodi-0.dtd"
   xmlns:inkscape="http://www.inkscape.org/namespaces/inkscape"
   version="1.1"
   id="svg2"
   width="325"
   height="325"
   viewBox="0 0 65 65"
   sodipodi:docname="keyr.svg"
   inkscape:export-filename="/home/arne/src/github.com/barnex/shiny/asset/lkeyr.png"
   inkscape:export-xdpi="18.904615"
   inkscape:export-ydpi="18.904615"
   inkscape:version="0.92.3 (2405546, 2018-03-11)">
  <metadata
     id="metadata8">
    <rdf:RDF>
      <cc:Work
         rdf:about="">
        <dc:format>image/svg+xml</dc:format>
        <dc:type
           rdf:resource="http://purl.org/dc/dcmitype/StillImage" />
        <dc:title />
      </cc:Work>
    </rdf:RDF>
  </metadata>
  <defs
     id="defs6">
    <filter
       inkscape:collect="always"
       style="color-interpolation-filters:sRGB"
       id="filter2626"
       x="-0.117499"
       width="1.234998"
       y="-0.22172347"
       height="1.4434469">
      <feGaussianBlur
         inkscape:collect="always"
         stdDeviation="2.5335351"
         id="feGaussianBlur2628" />
    </filter>
  </defs>
  <sodipodi:namedview
     pagecolor="#ffffff"
     bordercolor="#666666"
     borderopacity="1"
     objecttolerance="10"
     gridtolerance="10"
     guidetolerance="10"
     inkscape:pageopacity="0"
     inkscape:pageshadow="2"
     inkscape:window-width="959"
     inkscape:window-height="1061"
     id="namedview4"
     showgrid="true"
     scale-x="0.2"
     fit-margin-top="0"
     fit-margin-left="0"
     fit-margin-right="0"
     fit-margin-bottom="0"
     inkscape:zoom="1.84375"
     inkscape:cx="33.246184"
     inkscape:cy="142.97479"
     inkscape:window-x="960"
     inkscape:window-y="0"
     inkscape:window-maximized="0"
     inkscape:current-layer="svg2">
    <inkscape:grid
       type="xygrid"
       id="grid3715"
       originx="40"
       originy="51.2" />
  </sodipodi:namedview>
  <path
     style="fill:#000000;fill-opacity:1;stroke:#040404;stroke-width:0.92741317;stroke-opacity:1;filter:url(#filter2626)"
     d="M 20.70986,19.65876 A 14.113429,13.711864 0 0 0 6.596427,33.370625 14.113429,13.711864 0 0 0 20.70986,47.082489 14.113429,13.711864 0 0 0 33.17488,39.787347 c 0.1403,0.01658 0.27761,0.04106 0.42267,0.04106 h 9.69379 v 3.381546 c 0,1.816954 1.25892,3.279778 2.82269,3.279778 1.56377,0 2.82268,-1.462824 2.82268,-3.279778 v -3.381546 h 2.1942 v 3.874316 c 0,1.872388 1.55152,3.379762 3.47874,3.379762 h 0.25728 c 1.92722,0 3.47874,-1.507374 3.47874,-3.37976 V 36.44865 32.179761 C 58.34567,30.307373 56.79415,28.8 54.86693,28.8 H 34 A 14.113429,13.711864 0 0 0 20.70986,19.65876 Z m 0.0882,6.584552 a 7.0567144,6.8559322 0 0 1 7.05671,6.855932 7.0567144,6.8559322 0 0 1 -7.05671,6.855931 7.0567144,6.8559322 0 0 1 -7.05672,-6.855931 7.0567144,6.8559322 0 0 1 7.05672,-6.855932 z"
     id="path3750-6"
     inkscape:connector-curvature="0" />
  <path
     style="fill:#ff0000;fill-opacity:1;stroke:#000000;stroke-width:0.92741317;stroke-opacity:1"
     d="M 19.57895,17.059516 A 14.113429,13.711864 0 0 0 5.465517,30.771381 14.113429,13.711864 0 0 0 19.57895,44.483245 14.113429,13.711864 0 0 0 32.04397,37.188104 c 0.1403,0.01659 0.27761,0.04106 0.42267,0.04106 h 9.69379 v 3.381546 c 0,1.816954 1.25892,3.279777 2.82269,3.279777 1.56377,0 2.82268,-1.462823 2.82268,-3.279777 V 37.229164 H 50 v 3.874316 c 0,1.872388 1.55152,3.379762 3.47874,3.379762 h 0.25728 c 1.92722,0 3.47874,-1.507374 3.47874,-3.379761 v -7.254075 -4.268889 c 0,-1.872388 -1.55152,-3.379761 -3.47874,-3.379761 H 32.86909 a 14.113429,13.711864 0 0 0 -13.29014,-9.14124 z m 0.0882,6.584552 A 7.0567144,6.8559322 0 0 1 26.72386,30.5 7.0567144,6.8559322 0 0 1 19.66715,37.355932 7.0567144,6.8559322 0 0 1 12.61043,30.5 7.0567144,6.8559322 0 0 1 19.66715,23.644068 Z"
     id="path3750"
     inkscape:connector-curvature="0" />
</svg>
