<?xml version="1.0" encoding="UTF-8" standalone="no"?>
<!-- Created with Inkscape (http://www.inkscape.org/) -->

<svg
   xmlns:dc="http://purl.org/dc/elements/1.1/"
   xmlns:cc="http://creativecommons.org/ns#"
   xmlns:rdf="http://www.w3.org/1999/02/22-rdf-syntax-ns#"
   xmlns:svg="http://www.w3.org/2000/svg"
   xmlns="http://www.w3.org/2000/svg"
   xmlns:sodipodi="http://sodipodi.sourceforge.net/DTD/sodipodi-0.dtd"
   xmlns:inkscape="http://www.inkscape.org/namespaces/inkscape"
   version="1.1"
   id="svg2"
   width="325"
   height="325"
   viewBox="0 0 65 65"
   sodipodi:docname="locky.svg"
   inkscape:export-filename="/home/arne/src/github.com/barnex/shiny/asset/lockb.png"
   inkscape:export-xdpi="18.904615"
   inkscape:export-ydpi="18.904615"
   inkscape:version="0.92.3 (2405546, 2018-03-11)">
  <metadata
     id="metadata8">
    <rdf:RDF>
      <cc:Work
         rdf:about="">
        <dc:format>image/svg+xml</dc:format>
        <dc:type
           rdf:resource="http://purl.org/dc/dcmitype/StillImage" />
        <dc:title />
      </cc:Work>
    </rdf:RDF>
  </metadata>
  <defs
     id="defs6" />
  <sodipodi:namedview
     pagecolor="#ffffff"
     bordercolor="#666666"
     borderopacity="1"
     objecttolerance="10"
     gridtolerance="10"
     guidetolerance="10"
     inkscape:pageopacity="0"
     inkscape:pageshadow="2"
     inkscape:window-width="1920"
     inkscape:window-height="1080"
     id="namedview4"
     showgrid="true"
     scale-x="0.2"
     fit-margin-top="0"
     fit-margin-left="0"
     fit-margin-right="0"
     fit-margin-bottom="0"
     inkscape:zoom="1.84375"
     inkscape:cx="33.788557"
     inkscape:cy="142.97479"
     inkscape:window-x="0"
     inkscape:window-y="0"
     inkscape:window-maximized="0"
     inkscape:current-layer="svg2">
    <inkscape:grid
       type="xygrid"
       id="grid3715"
       originx="40"
       originy="51.2" />
  </sodipodi:namedview>
  <rect
     style="fill:#ffff00;fill-opacity:1;stroke:none;stroke-width:1.01719105;stroke-opacity:1"
     id="rect4599"
     width="55"
     height="55.254234"
     x="5"
     y="5"
     ry="0" />
  <path
     style="fill:#817e7e;fill-opacity:1;stroke:#000000;stroke-width:0.92741317;stroke-opacity:1"
     d="M 19.57895,17.059516 A 14.113429,13.711864 0 0 0 5.465517,30.771381 14.113429,13.711864 0 0 0 19.57895,44.483245 14.113429,13.711864 0 0 0 32.04397,37.188104 c 0.1403,0.01659 0.27761,0.04106 0.42267,0.04106 h 9.69379 v 3.381546 c 0,1.816954 1.25892,3.279777 2.82269,3.279777 1.56377,0 2.82268,-1.462823 2.82268,-3.279777 V 37.229164 H 50 v 3.874316 c 0,1.872388 1.55152,3.379762 3.47874,3.379762 h 0.25728 c 1.92722,0 3.47874,-1.507374 3.47874,-3.379761 v -7.254075 -4.268889 c 0,-1.872388 -1.55152,-3.379761 -3.47874,-3.379761 H 32.86909 a 14.113429,13.711864 0 0 0 -13.29014,-9.14124 z m 0.0882,6.584552 A 7.0567144,6.8559322 0 0 1 26.72386,30.5 7.0567144,6.8559322 0 0 1 19.66715,37.355932 7.0567144,6.8559322 0 0 1 12.61043,30.5 7.0567144,6.8559322 0 0 1 19.66715,23.644068 Z"
     id="path3750"
     inkscape:connector-curvature="0" />
  <path
     style="fill:#00bd00;fill-opacity:1;stroke:none;stroke-width:1px;stroke-linecap:butt;stroke-linejoin:miter;stroke-opacity:1"
     d="M 0,65 5,60 59.796612,60.254234 65,65 Z"
     id="path4601"
     inkscape:connector-curvature="0"
     sodipodi:nodetypes="ccccc" />
  <path
     style="fill:#008c00;fill-opacity:1;stroke:none;stroke-width:1px;stroke-linecap:butt;stroke-linejoin:miter;stroke-opacity:1"
     d="M 65,65 59.796616,60.254234 60,5 65,0 Z"
     id="path4601-5"
     inkscape:connector-curvature="0"
     sodipodi:nodetypes="ccccc" />
  <path
     style="fill:#ffff94;fill-opacity:1;stroke:none;stroke-width:1px;stroke-linecap:butt;stroke-linejoin:miter;stroke-opacity:1"
     d="M 65,0 60,5 H 5 L 0,0 Z"
     id="path4601-5-3"
     inkscape:connector-curvature="0"
     sodipodi:nodetypes="ccccc" />
  <path
     style="fill:#ffffbf;fill-opacity:1;stroke:none;stroke-width:1px;stroke-linecap:butt;stroke-linejoin:miter;stroke-opacity:1"
     d="M 0,0 5,5 V 60 L 0,65 Z"
     id="path4601-5-3-5"
     inkscape:connector-curvature="0"
     sodipodi:nodetypes="ccccc" />
</svg>
